<mxfile host="app.diagrams.net" agent="Mozilla/5.0 (Windows NT 10.0; Win64; x64) AppleWebKit/537.36 (KHTML, like Gecko) Chrome/129.0.0.0 Safari/537.36 Edg/129.0.0.0" version="24.7.16">
  <diagram id="R2lEEEUBdFMjLlhIrx00" name="Page-1">
    <mxGraphModel dx="974" dy="2235" grid="1" gridSize="10" guides="1" tooltips="1" connect="1" arrows="1" fold="1" page="1" pageScale="1" pageWidth="850" pageHeight="1100" math="0" shadow="0" extFonts="Permanent Marker^https://fonts.googleapis.com/css?family=Permanent+Marker">
      <root>
        <mxCell id="0" />
        <mxCell id="1" parent="0" />
        <mxCell id="dXFxLWVXOz6fQHLVA481-10" style="edgeStyle=orthogonalEdgeStyle;rounded=0;orthogonalLoop=1;jettySize=auto;html=1;" edge="1" parent="1" source="EnDhoQLiz2VgIZupC2fY-2" target="dXFxLWVXOz6fQHLVA481-9">
          <mxGeometry relative="1" as="geometry" />
        </mxCell>
        <mxCell id="dXFxLWVXOz6fQHLVA481-11" style="edgeStyle=orthogonalEdgeStyle;rounded=0;orthogonalLoop=1;jettySize=auto;html=1;" edge="1" parent="1" source="EnDhoQLiz2VgIZupC2fY-2" target="dXFxLWVXOz6fQHLVA481-8">
          <mxGeometry relative="1" as="geometry" />
        </mxCell>
        <mxCell id="dXFxLWVXOz6fQHLVA481-13" style="edgeStyle=orthogonalEdgeStyle;rounded=0;orthogonalLoop=1;jettySize=auto;html=1;" edge="1" parent="1" source="EnDhoQLiz2VgIZupC2fY-2" target="dXFxLWVXOz6fQHLVA481-12">
          <mxGeometry relative="1" as="geometry" />
        </mxCell>
        <mxCell id="dXFxLWVXOz6fQHLVA481-19" style="edgeStyle=orthogonalEdgeStyle;rounded=0;orthogonalLoop=1;jettySize=auto;html=1;" edge="1" parent="1" source="EnDhoQLiz2VgIZupC2fY-2" target="dXFxLWVXOz6fQHLVA481-7">
          <mxGeometry relative="1" as="geometry" />
        </mxCell>
        <mxCell id="EnDhoQLiz2VgIZupC2fY-2" value="Doctor" style="whiteSpace=wrap;html=1;align=center;" parent="1" vertex="1">
          <mxGeometry x="149" y="100" width="100" height="40" as="geometry" />
        </mxCell>
        <mxCell id="dXFxLWVXOz6fQHLVA481-15" style="edgeStyle=orthogonalEdgeStyle;rounded=0;orthogonalLoop=1;jettySize=auto;html=1;" edge="1" parent="1" source="dXFxLWVXOz6fQHLVA481-1" target="dXFxLWVXOz6fQHLVA481-14">
          <mxGeometry relative="1" as="geometry" />
        </mxCell>
        <mxCell id="dXFxLWVXOz6fQHLVA481-22" style="edgeStyle=orthogonalEdgeStyle;rounded=0;orthogonalLoop=1;jettySize=auto;html=1;" edge="1" parent="1" source="dXFxLWVXOz6fQHLVA481-1" target="dXFxLWVXOz6fQHLVA481-21">
          <mxGeometry relative="1" as="geometry" />
        </mxCell>
        <mxCell id="dXFxLWVXOz6fQHLVA481-23" style="edgeStyle=orthogonalEdgeStyle;rounded=0;orthogonalLoop=1;jettySize=auto;html=1;" edge="1" parent="1" source="dXFxLWVXOz6fQHLVA481-1" target="dXFxLWVXOz6fQHLVA481-20">
          <mxGeometry relative="1" as="geometry" />
        </mxCell>
        <mxCell id="dXFxLWVXOz6fQHLVA481-119" style="edgeStyle=orthogonalEdgeStyle;rounded=0;orthogonalLoop=1;jettySize=auto;html=1;entryX=0.5;entryY=0;entryDx=0;entryDy=0;" edge="1" parent="1" source="dXFxLWVXOz6fQHLVA481-1" target="dXFxLWVXOz6fQHLVA481-16">
          <mxGeometry relative="1" as="geometry" />
        </mxCell>
        <mxCell id="dXFxLWVXOz6fQHLVA481-1" value="Department" style="whiteSpace=wrap;html=1;align=center;" vertex="1" parent="1">
          <mxGeometry x="467.5" y="200" width="100" height="40" as="geometry" />
        </mxCell>
        <mxCell id="dXFxLWVXOz6fQHLVA481-48" style="edgeStyle=orthogonalEdgeStyle;rounded=0;orthogonalLoop=1;jettySize=auto;html=1;" edge="1" parent="1" source="dXFxLWVXOz6fQHLVA481-2" target="dXFxLWVXOz6fQHLVA481-45">
          <mxGeometry relative="1" as="geometry" />
        </mxCell>
        <mxCell id="dXFxLWVXOz6fQHLVA481-49" style="edgeStyle=orthogonalEdgeStyle;rounded=0;orthogonalLoop=1;jettySize=auto;html=1;" edge="1" parent="1" source="dXFxLWVXOz6fQHLVA481-2" target="dXFxLWVXOz6fQHLVA481-46">
          <mxGeometry relative="1" as="geometry" />
        </mxCell>
        <mxCell id="dXFxLWVXOz6fQHLVA481-50" style="edgeStyle=orthogonalEdgeStyle;rounded=0;orthogonalLoop=1;jettySize=auto;html=1;" edge="1" parent="1" source="dXFxLWVXOz6fQHLVA481-2" target="dXFxLWVXOz6fQHLVA481-47">
          <mxGeometry relative="1" as="geometry" />
        </mxCell>
        <mxCell id="dXFxLWVXOz6fQHLVA481-51" style="edgeStyle=orthogonalEdgeStyle;rounded=0;orthogonalLoop=1;jettySize=auto;html=1;" edge="1" parent="1" source="dXFxLWVXOz6fQHLVA481-2" target="dXFxLWVXOz6fQHLVA481-44">
          <mxGeometry relative="1" as="geometry" />
        </mxCell>
        <mxCell id="dXFxLWVXOz6fQHLVA481-2" value="Medication" style="whiteSpace=wrap;html=1;align=center;" vertex="1" parent="1">
          <mxGeometry x="152.5" y="560" width="100" height="40" as="geometry" />
        </mxCell>
        <mxCell id="dXFxLWVXOz6fQHLVA481-56" style="edgeStyle=orthogonalEdgeStyle;rounded=0;orthogonalLoop=1;jettySize=auto;html=1;" edge="1" parent="1" source="dXFxLWVXOz6fQHLVA481-3" target="dXFxLWVXOz6fQHLVA481-53">
          <mxGeometry relative="1" as="geometry" />
        </mxCell>
        <mxCell id="dXFxLWVXOz6fQHLVA481-57" style="edgeStyle=orthogonalEdgeStyle;rounded=0;orthogonalLoop=1;jettySize=auto;html=1;" edge="1" parent="1" source="dXFxLWVXOz6fQHLVA481-3" target="dXFxLWVXOz6fQHLVA481-52">
          <mxGeometry relative="1" as="geometry" />
        </mxCell>
        <mxCell id="dXFxLWVXOz6fQHLVA481-112" style="edgeStyle=orthogonalEdgeStyle;rounded=0;orthogonalLoop=1;jettySize=auto;html=1;" edge="1" parent="1" source="dXFxLWVXOz6fQHLVA481-3" target="dXFxLWVXOz6fQHLVA481-65">
          <mxGeometry relative="1" as="geometry" />
        </mxCell>
        <mxCell id="dXFxLWVXOz6fQHLVA481-113" style="edgeStyle=orthogonalEdgeStyle;rounded=0;orthogonalLoop=1;jettySize=auto;html=1;" edge="1" parent="1" source="dXFxLWVXOz6fQHLVA481-3" target="dXFxLWVXOz6fQHLVA481-64">
          <mxGeometry relative="1" as="geometry" />
        </mxCell>
        <mxCell id="dXFxLWVXOz6fQHLVA481-116" style="edgeStyle=orthogonalEdgeStyle;rounded=0;orthogonalLoop=1;jettySize=auto;html=1;" edge="1" parent="1" source="dXFxLWVXOz6fQHLVA481-3" target="dXFxLWVXOz6fQHLVA481-66">
          <mxGeometry relative="1" as="geometry" />
        </mxCell>
        <mxCell id="dXFxLWVXOz6fQHLVA481-3" value="Prescription" style="shape=ext;margin=3;double=1;whiteSpace=wrap;html=1;align=center;" vertex="1" parent="1">
          <mxGeometry x="130" y="405" width="100" height="40" as="geometry" />
        </mxCell>
        <mxCell id="dXFxLWVXOz6fQHLVA481-4" value="Room" style="shape=ext;margin=3;double=1;whiteSpace=wrap;html=1;align=center;" vertex="1" parent="1">
          <mxGeometry x="515" y="-45" width="100" height="40" as="geometry" />
        </mxCell>
        <mxCell id="dXFxLWVXOz6fQHLVA481-5" value="Equipment" style="shape=ext;margin=3;double=1;whiteSpace=wrap;html=1;align=center;" vertex="1" parent="1">
          <mxGeometry x="630" y="890" width="100" height="40" as="geometry" />
        </mxCell>
        <mxCell id="dXFxLWVXOz6fQHLVA481-7" value="staff_id" style="ellipse;whiteSpace=wrap;html=1;align=center;fontStyle=4;" vertex="1" parent="1">
          <mxGeometry x="282.5" y="100" width="100" height="40" as="geometry" />
        </mxCell>
        <mxCell id="dXFxLWVXOz6fQHLVA481-8" value="name" style="ellipse;whiteSpace=wrap;html=1;align=center;" vertex="1" parent="1">
          <mxGeometry x="89" y="20" width="100" height="40" as="geometry" />
        </mxCell>
        <mxCell id="dXFxLWVXOz6fQHLVA481-9" value="specialty" style="ellipse;whiteSpace=wrap;html=1;align=center;" vertex="1" parent="1">
          <mxGeometry x="19.999999999999886" y="100" width="100" height="40" as="geometry" />
        </mxCell>
        <mxCell id="dXFxLWVXOz6fQHLVA481-12" value="years_of_experience" style="ellipse;whiteSpace=wrap;html=1;align=center;" vertex="1" parent="1">
          <mxGeometry x="209" y="20" width="140" height="40" as="geometry" />
        </mxCell>
        <mxCell id="dXFxLWVXOz6fQHLVA481-14" value="department_id " style="ellipse;whiteSpace=wrap;html=1;align=center;fontStyle=4;" vertex="1" parent="1">
          <mxGeometry x="397.4999999999999" y="130" width="100" height="40" as="geometry" />
        </mxCell>
        <mxCell id="dXFxLWVXOz6fQHLVA481-16" value="name" style="ellipse;whiteSpace=wrap;html=1;align=center;" vertex="1" parent="1">
          <mxGeometry x="432.5" y="270" width="50" height="20" as="geometry" />
        </mxCell>
        <mxCell id="dXFxLWVXOz6fQHLVA481-20" value="description" style="ellipse;whiteSpace=wrap;html=1;align=center;" vertex="1" parent="1">
          <mxGeometry x="577.5" y="200" width="75" height="30" as="geometry" />
        </mxCell>
        <mxCell id="dXFxLWVXOz6fQHLVA481-21" value="location" style="ellipse;whiteSpace=wrap;html=1;align=center;" vertex="1" parent="1">
          <mxGeometry x="492.5" y="270" width="50" height="20" as="geometry" />
        </mxCell>
        <mxCell id="dXFxLWVXOz6fQHLVA481-44" value="medication_id " style="ellipse;whiteSpace=wrap;html=1;align=center;fontStyle=4;" vertex="1" parent="1">
          <mxGeometry x="182.4999999999999" y="640" width="100" height="40" as="geometry" />
        </mxCell>
        <mxCell id="dXFxLWVXOz6fQHLVA481-45" value="name" style="ellipse;whiteSpace=wrap;html=1;align=center;" vertex="1" parent="1">
          <mxGeometry x="65.5" y="600" width="50" height="20" as="geometry" />
        </mxCell>
        <mxCell id="dXFxLWVXOz6fQHLVA481-46" value="discription" style="ellipse;whiteSpace=wrap;html=1;align=center;" vertex="1" parent="1">
          <mxGeometry x="81" y="640" width="75" height="30" as="geometry" />
        </mxCell>
        <mxCell id="dXFxLWVXOz6fQHLVA481-47" value="price" style="ellipse;whiteSpace=wrap;html=1;align=center;" vertex="1" parent="1">
          <mxGeometry x="60.5" y="570" width="50" height="20" as="geometry" />
        </mxCell>
        <mxCell id="dXFxLWVXOz6fQHLVA481-52" value="prescription_id " style="ellipse;whiteSpace=wrap;html=1;align=center;fontStyle=4;" vertex="1" parent="1">
          <mxGeometry x="15.999999999999886" y="313" width="100" height="40" as="geometry" />
        </mxCell>
        <mxCell id="dXFxLWVXOz6fQHLVA481-53" value="date" style="ellipse;whiteSpace=wrap;html=1;align=center;" vertex="1" parent="1">
          <mxGeometry y="410" width="50" height="30" as="geometry" />
        </mxCell>
        <mxCell id="dXFxLWVXOz6fQHLVA481-64" value="doctor_id " style="ellipse;whiteSpace=wrap;html=1;align=center;" vertex="1" parent="1">
          <mxGeometry x="28" y="368" width="75" height="30" as="geometry" />
        </mxCell>
        <mxCell id="dXFxLWVXOz6fQHLVA481-65" value="patient_SSN " style="ellipse;whiteSpace=wrap;html=1;align=center;" vertex="1" parent="1">
          <mxGeometry x="28" y="475" width="75" height="30" as="geometry" />
        </mxCell>
        <mxCell id="dXFxLWVXOz6fQHLVA481-66" value="medication_id " style="ellipse;whiteSpace=wrap;html=1;align=center;" vertex="1" parent="1">
          <mxGeometry x="129.9999999999999" y="475" width="100" height="40" as="geometry" />
        </mxCell>
        <mxCell id="dXFxLWVXOz6fQHLVA481-67" value="room_id " style="ellipse;whiteSpace=wrap;html=1;align=center;fontStyle=4;" vertex="1" parent="1">
          <mxGeometry x="415" y="-100" width="75" height="30" as="geometry" />
        </mxCell>
        <mxCell id="dXFxLWVXOz6fQHLVA481-68" value="location" style="ellipse;whiteSpace=wrap;html=1;align=center;" vertex="1" parent="1">
          <mxGeometry x="622.5" y="-125" width="75" height="30" as="geometry" />
        </mxCell>
        <mxCell id="dXFxLWVXOz6fQHLVA481-69" value="room_type" style="ellipse;whiteSpace=wrap;html=1;align=center;" vertex="1" parent="1">
          <mxGeometry x="642.5" y="-60" width="75" height="30" as="geometry" />
        </mxCell>
        <mxCell id="dXFxLWVXOz6fQHLVA481-70" value="department_id " style="ellipse;whiteSpace=wrap;html=1;align=center;" vertex="1" parent="1">
          <mxGeometry x="499.9999999999999" y="-130" width="100" height="40" as="geometry" />
        </mxCell>
        <mxCell id="dXFxLWVXOz6fQHLVA481-71" value="start_time" style="ellipse;whiteSpace=wrap;html=1;align=center;" vertex="1" parent="1">
          <mxGeometry x="760" y="-80" width="75" height="30" as="geometry" />
        </mxCell>
        <mxCell id="dXFxLWVXOz6fQHLVA481-72" value="end_time" style="ellipse;whiteSpace=wrap;html=1;align=center;" vertex="1" parent="1">
          <mxGeometry x="760" y="-35" width="75" height="30" as="geometry" />
        </mxCell>
        <mxCell id="dXFxLWVXOz6fQHLVA481-73" value="available_rooms" style="ellipse;whiteSpace=wrap;html=1;align=center;" vertex="1" parent="1">
          <mxGeometry x="389.9999999999999" y="-45" width="100" height="40" as="geometry" />
        </mxCell>
        <mxCell id="dXFxLWVXOz6fQHLVA481-74" value="equipment_id" style="ellipse;whiteSpace=wrap;html=1;align=center;fontStyle=4;" vertex="1" parent="1">
          <mxGeometry x="689.9999999999999" y="940" width="100" height="40" as="geometry" />
        </mxCell>
        <mxCell id="dXFxLWVXOz6fQHLVA481-75" value="name" style="ellipse;whiteSpace=wrap;html=1;align=center;" vertex="1" parent="1">
          <mxGeometry x="502.5" y="900" width="50" height="20" as="geometry" />
        </mxCell>
        <mxCell id="dXFxLWVXOz6fQHLVA481-76" value="type" style="ellipse;whiteSpace=wrap;html=1;align=center;" vertex="1" parent="1">
          <mxGeometry x="565" y="900" width="50" height="20" as="geometry" />
        </mxCell>
        <mxCell id="dXFxLWVXOz6fQHLVA481-78" value="description" style="ellipse;whiteSpace=wrap;html=1;align=center;" vertex="1" parent="1">
          <mxGeometry x="765" y="895" width="75" height="30" as="geometry" />
        </mxCell>
        <mxCell id="dXFxLWVXOz6fQHLVA481-79" value="department_id " style="ellipse;whiteSpace=wrap;html=1;align=center;" vertex="1" parent="1">
          <mxGeometry x="580" y="940" width="100" height="40" as="geometry" />
        </mxCell>
        <mxCell id="dXFxLWVXOz6fQHLVA481-87" value="work" style="shape=rhombus;perimeter=rhombusPerimeter;whiteSpace=wrap;html=1;align=center;" vertex="1" parent="1">
          <mxGeometry x="265" y="200" width="80" height="40" as="geometry" />
        </mxCell>
        <mxCell id="dXFxLWVXOz6fQHLVA481-96" value="" style="endArrow=none;html=1;rounded=0;entryX=1;entryY=0.5;entryDx=0;entryDy=0;exitX=0;exitY=0.5;exitDx=0;exitDy=0;" edge="1" parent="1" source="dXFxLWVXOz6fQHLVA481-1" target="dXFxLWVXOz6fQHLVA481-87">
          <mxGeometry relative="1" as="geometry">
            <mxPoint x="455" y="300" as="sourcePoint" />
            <mxPoint x="295" y="300" as="targetPoint" />
          </mxGeometry>
        </mxCell>
        <mxCell id="dXFxLWVXOz6fQHLVA481-97" value="1" style="resizable=0;html=1;whiteSpace=wrap;align=right;verticalAlign=bottom;" connectable="0" vertex="1" parent="dXFxLWVXOz6fQHLVA481-96">
          <mxGeometry x="1" relative="1" as="geometry">
            <mxPoint x="43" as="offset" />
          </mxGeometry>
        </mxCell>
        <mxCell id="dXFxLWVXOz6fQHLVA481-106" value="" style="shape=link;html=1;rounded=0;entryX=0;entryY=0.5;entryDx=0;entryDy=0;exitX=0.5;exitY=1;exitDx=0;exitDy=0;" edge="1" parent="1" source="EnDhoQLiz2VgIZupC2fY-2" target="dXFxLWVXOz6fQHLVA481-87">
          <mxGeometry relative="1" as="geometry">
            <mxPoint x="119" y="219.5" as="sourcePoint" />
            <mxPoint x="279" y="219.5" as="targetPoint" />
            <Array as="points">
              <mxPoint x="200" y="220" />
            </Array>
          </mxGeometry>
        </mxCell>
        <mxCell id="dXFxLWVXOz6fQHLVA481-107" value="N" style="resizable=0;html=1;whiteSpace=wrap;align=right;verticalAlign=bottom;" connectable="0" vertex="1" parent="dXFxLWVXOz6fQHLVA481-106">
          <mxGeometry x="1" relative="1" as="geometry">
            <mxPoint x="-48" y="-5" as="offset" />
          </mxGeometry>
        </mxCell>
        <mxCell id="dXFxLWVXOz6fQHLVA481-37" style="edgeStyle=orthogonalEdgeStyle;rounded=0;orthogonalLoop=1;jettySize=auto;html=1;" edge="1" parent="1" source="EnDhoQLiz2VgIZupC2fY-3" target="dXFxLWVXOz6fQHLVA481-32">
          <mxGeometry relative="1" as="geometry" />
        </mxCell>
        <mxCell id="dXFxLWVXOz6fQHLVA481-38" style="edgeStyle=orthogonalEdgeStyle;rounded=0;orthogonalLoop=1;jettySize=auto;html=1;" edge="1" parent="1" source="EnDhoQLiz2VgIZupC2fY-3" target="dXFxLWVXOz6fQHLVA481-27">
          <mxGeometry relative="1" as="geometry" />
        </mxCell>
        <mxCell id="dXFxLWVXOz6fQHLVA481-39" style="edgeStyle=orthogonalEdgeStyle;rounded=0;orthogonalLoop=1;jettySize=auto;html=1;" edge="1" parent="1" source="EnDhoQLiz2VgIZupC2fY-3" target="dXFxLWVXOz6fQHLVA481-31">
          <mxGeometry relative="1" as="geometry" />
        </mxCell>
        <mxCell id="dXFxLWVXOz6fQHLVA481-43" style="edgeStyle=orthogonalEdgeStyle;rounded=0;orthogonalLoop=1;jettySize=auto;html=1;" edge="1" parent="1" source="EnDhoQLiz2VgIZupC2fY-3" target="dXFxLWVXOz6fQHLVA481-24">
          <mxGeometry relative="1" as="geometry" />
        </mxCell>
        <mxCell id="dXFxLWVXOz6fQHLVA481-63" style="edgeStyle=orthogonalEdgeStyle;rounded=0;orthogonalLoop=1;jettySize=auto;html=1;entryX=0.5;entryY=1;entryDx=0;entryDy=0;" edge="1" parent="1" source="EnDhoQLiz2VgIZupC2fY-3" target="dXFxLWVXOz6fQHLVA481-59">
          <mxGeometry relative="1" as="geometry" />
        </mxCell>
        <mxCell id="dXFxLWVXOz6fQHLVA481-84" style="edgeStyle=orthogonalEdgeStyle;rounded=0;orthogonalLoop=1;jettySize=auto;html=1;entryX=0;entryY=0.5;entryDx=0;entryDy=0;" edge="1" parent="1" source="EnDhoQLiz2VgIZupC2fY-3" target="dXFxLWVXOz6fQHLVA481-30">
          <mxGeometry relative="1" as="geometry" />
        </mxCell>
        <mxCell id="EnDhoQLiz2VgIZupC2fY-3" value="Patient" style="whiteSpace=wrap;html=1;align=center;" parent="1" vertex="1">
          <mxGeometry x="538.5" y="388" width="100" height="40" as="geometry" />
        </mxCell>
        <mxCell id="dXFxLWVXOz6fQHLVA481-24" value="SSN" style="ellipse;whiteSpace=wrap;html=1;align=center;fontStyle=4;" vertex="1" parent="1">
          <mxGeometry x="520.5" y="333" width="50" height="20" as="geometry" />
        </mxCell>
        <mxCell id="dXFxLWVXOz6fQHLVA481-25" value="first_name" style="ellipse;whiteSpace=wrap;html=1;align=center;" vertex="1" parent="1">
          <mxGeometry x="634.75" y="303" width="62.5" height="25" as="geometry" />
        </mxCell>
        <mxCell id="dXFxLWVXOz6fQHLVA481-26" value="last_name" style="ellipse;whiteSpace=wrap;html=1;align=center;" vertex="1" parent="1">
          <mxGeometry x="721.5" y="303" width="62.5" height="25" as="geometry" />
        </mxCell>
        <mxCell id="dXFxLWVXOz6fQHLVA481-27" value="address" style="ellipse;whiteSpace=wrap;html=1;align=center;" vertex="1" parent="1">
          <mxGeometry x="583" y="326" width="75" height="30" as="geometry" />
        </mxCell>
        <mxCell id="dXFxLWVXOz6fQHLVA481-30" value="age" style="ellipse;whiteSpace=wrap;html=1;align=center;" vertex="1" parent="1">
          <mxGeometry x="734" y="398" width="50" height="20" as="geometry" />
        </mxCell>
        <mxCell id="dXFxLWVXOz6fQHLVA481-31" value="date_of_birth" style="ellipse;whiteSpace=wrap;html=1;align=center;" vertex="1" parent="1">
          <mxGeometry x="708.4999999999999" y="428" width="100" height="40" as="geometry" />
        </mxCell>
        <mxCell id="dXFxLWVXOz6fQHLVA481-32" value="phone_number" style="ellipse;shape=doubleEllipse;margin=3;whiteSpace=wrap;html=1;align=center;" vertex="1" parent="1">
          <mxGeometry x="407.5" y="328" width="100" height="40" as="geometry" />
        </mxCell>
        <mxCell id="dXFxLWVXOz6fQHLVA481-62" style="edgeStyle=orthogonalEdgeStyle;rounded=0;orthogonalLoop=1;jettySize=auto;html=1;" edge="1" parent="1" source="dXFxLWVXOz6fQHLVA481-59" target="dXFxLWVXOz6fQHLVA481-26">
          <mxGeometry relative="1" as="geometry" />
        </mxCell>
        <mxCell id="dXFxLWVXOz6fQHLVA481-83" style="edgeStyle=orthogonalEdgeStyle;rounded=0;orthogonalLoop=1;jettySize=auto;html=1;entryX=0.5;entryY=1;entryDx=0;entryDy=0;" edge="1" parent="1" source="dXFxLWVXOz6fQHLVA481-59" target="dXFxLWVXOz6fQHLVA481-25">
          <mxGeometry relative="1" as="geometry" />
        </mxCell>
        <mxCell id="dXFxLWVXOz6fQHLVA481-59" value="name" style="ellipse;whiteSpace=wrap;html=1;align=center;" vertex="1" parent="1">
          <mxGeometry x="682.5" y="368" width="50" height="20" as="geometry" />
        </mxCell>
        <mxCell id="dXFxLWVXOz6fQHLVA481-108" value="receive" style="shape=rhombus;perimeter=rhombusPerimeter;whiteSpace=wrap;html=1;align=center;" vertex="1" parent="1">
          <mxGeometry x="355" y="433" width="70" height="35" as="geometry" />
        </mxCell>
        <mxCell id="dXFxLWVXOz6fQHLVA481-115" value="prescribe" style="shape=rhombus;perimeter=rhombusPerimeter;whiteSpace=wrap;html=1;align=center;" vertex="1" parent="1">
          <mxGeometry x="140" y="260" width="80" height="40" as="geometry" />
        </mxCell>
        <mxCell id="dXFxLWVXOz6fQHLVA481-117" value="have" style="shape=rhombus;perimeter=rhombusPerimeter;whiteSpace=wrap;html=1;align=center;" vertex="1" parent="1">
          <mxGeometry x="265" y="490" width="70" height="35" as="geometry" />
        </mxCell>
      </root>
    </mxGraphModel>
  </diagram>
</mxfile>
